<svg xmlns="http://www.w3.org/2000/svg" width="20" height="20" viewBox="0 0 20 20"><path fill="#fff" d="M16.365 14.13c-.19-.15-1.13-.54-1.13-2.01 0-1.37 1.09-1.98 1.14-2.01-.06-.09-.97-.36-1.93.14-.41.22-.68.22-.68.22s-.22-.01-.68-.22c-.96-.5-1.87-.23-1.93-.14.05.03 1.14.64 1.14 2.01 0 1.47-.94 1.86-1.13 2.01-.19.15-.41.11-.41.11s.03.01.09.01c.19 0 .41-.11.41-.11.19-.15 1.13-.54 1.13-2.01 0-1.37-1.09-1.98-1.14-2.01.06-.09.97-.36 1.93.14.41.22.68.22.68.22s.22-.01.68-.22c.96-.5 1.87-.23 1.93-.14-.05.03-1.14.64-1.14 2.01 0 1.47.94 1.86 1.13 2.01.19.15.41.11.41.11s-.03.01-.09.01c-.19 0-.41-.11-.41-.11z"/><path fill="#000" d="M10 0C4.48 0 0 4.48 0 10c0 5.52 4.48 10 10 10s10-4.48 10-10c0-5.52-4.48-10-10-10zm0 18.18c-4.52 0-8.18-3.66-8.18-8.18S5.48 1.82 10 1.82s8.18 3.66 8.18 8.18-3.66 8.18-8.18 8.18z"/></svg>
