<svg xmlns="http://www.w3.org/2000/svg" width="20" height="20" viewBox="0 0 20 20"><g><path fill="#4285F4" d="M19.6 10.23c0-.68-.06-1.36-.18-2H10v3.79h5.41c-.23 1.23-.93 2.27-1.98 2.97v2.47h3.2c1.87-1.72 2.97-4.26 2.97-7.23z"/><path fill="#34A853" d="M10 20c2.7 0 4.97-.89 6.63-2.41l-3.2-2.47c-.89.6-2.03.96-3.43.96-2.64 0-4.87-1.78-5.67-4.18H1.05v2.62C2.7 17.98 6.08 20 10 20z"/><path fill="#FBBC05" d="M4.33 12.9c-.2-.6-.32-1.24-.32-1.9s.12-1.3.32-1.9V6.48H1.05C.38 7.78 0 9.34 0 11c0 1.66.38 3.22 1.05 4.52l3.28-2.62z"/><path fill="#EA4335" d="M10 3.96c1.47 0 2.79.51 3.83 1.51l2.87-2.87C14.97 1.07 12.7 0 10 0 6.08 0 2.7 2.02 1.05 5.48l3.28 2.62C5.13 5.74 7.36 3.96 10 3.96z"/></g></svg>
